<?xml version="1.0" standalone="no"?>
<!DOCTYPE svg PUBLIC "-//W3C//DTD SVG 20010904//EN"
 "http://www.w3.org/TR/2001/REC-SVG-20010904/DTD/svg10.dtd">
<svg version="1.0" xmlns="http://www.w3.org/2000/svg"
 width="192.000000pt" height="192.000000pt" viewBox="0 0 192.000000 192.000000"
 preserveAspectRatio="xMidYMid meet">
<metadata>
Created by potrace 1.11, written by Peter Selinger 2001-2013
</metadata>
<g transform="translate(0.000000,192.000000) scale(0.100000,-0.100000)"
fill="#000000" stroke="none">
<path d="M823 1680 c-72 -15 -183 -57 -241 -92 -80 -47 -201 -170 -251 -255
-24 -40 -55 -107 -69 -150 -23 -70 -26 -94 -26 -223 0 -133 2 -152 27 -225 79
-225 252 -399 474 -473 70 -23 94 -26 223 -26 136 0 150 2 232 31 48 17 113
46 144 64 120 72 235 203 294 333 69 153 79 362 26 521 -75 223 -253 401 -473
472 -62 20 -103 26 -198 29 -66 2 -139 -1 -162 -6z"/>
</g>
</svg>
