<?xml version="1.0" encoding="utf-8"?>
<!-- Generator: Adobe Illustrator 17.0.0, SVG Export Plug-In . SVG Version: 6.00 Build 0)  -->
<!DOCTYPE svg PUBLIC "-//W3C//DTD SVG 1.1//EN" "http://www.w3.org/Graphics/SVG/1.1/DTD/svg11.dtd">
<svg version="1.1" id="Layer_1" xmlns="http://www.w3.org/2000/svg" xmlns:xlink="http://www.w3.org/1999/xlink" x="0px" y="0px"
	 width="79px" height="79px" viewBox="0 0 79 79" enable-background="new 0 0 79 79" xml:space="preserve">
<g id="Layer_1_1_" xmlns:sketch="http://www.bohemiancoding.com/sketch/ns">
	<title>noon_pacific_logo_vector</title>
	<desc>Created with Sketch.</desc>
	<circle fill="#EA0E27" cx="39.5" cy="39.5" r="30.15"/>
	<circle fill="#FFFFFF" cx="39.5" cy="39.5" r="26.833"/>
</g>
<g id="Layer_2">
	<circle fill="#F1CE5C" cx="49.737" cy="25.41" r="3.667"/>
	<circle fill="#388CBF" cx="39.5" cy="39.5" r="13.75"/>
	<circle fill="#F1CE5C" cx="39.5" cy="22.083" r="3.667"/>
	<circle fill="#388CBF" cx="39.5" cy="39.5" r="13.75"/>
	<circle fill="#F1CE5C" cx="29.263" cy="25.41" r="3.667"/>
	<circle fill="#388CBF" cx="39.5" cy="39.5" r="13.75"/>
	<circle fill="#F1CE5C" cx="22.936" cy="34.118" r="3.667"/>
	<circle fill="#388CBF" cx="39.5" cy="39.5" r="13.75"/>
	<circle fill="#F1CE5C" cx="22.936" cy="44.882" r="3.667"/>
	<circle fill="#388CBF" cx="39.5" cy="39.5" r="13.75"/>
	<circle fill="#F1CE5C" cx="29.263" cy="53.59" r="3.667"/>
	<circle fill="#388CBF" cx="39.5" cy="39.5" r="13.75"/>
	<circle fill="#F1CE5C" cx="39.5" cy="56.917" r="3.667"/>
	<circle fill="#388CBF" cx="39.5" cy="39.5" r="13.75"/>
	<circle fill="#F1CE5C" cx="49.737" cy="53.59" r="3.667"/>
	<circle fill="#388CBF" cx="39.5" cy="39.5" r="13.75"/>
	<circle fill="#F1CE5C" cx="56.064" cy="44.882" r="3.667"/>
	<circle fill="#388CBF" cx="39.5" cy="39.5" r="13.75"/>
	<circle fill="#F1CE5C" cx="56.064" cy="34.118" r="3.667"/>
	<circle fill="#388CBF" cx="39.5" cy="39.5" r="16.201"/>
</g>
</svg>
