<?xml version="1.0" standalone="no"?>
<!DOCTYPE svg PUBLIC "-//W3C//DTD SVG 20010904//EN"
 "http://www.w3.org/TR/2001/REC-SVG-20010904/DTD/svg10.dtd">
<svg version="1.0" xmlns="http://www.w3.org/2000/svg"
 width="192.000000pt" height="192.000000pt" viewBox="0 0 192.000000 192.000000"
 preserveAspectRatio="xMidYMid meet">
<metadata>
Created by potrace 1.11, written by Peter Selinger 2001-2013
</metadata>
<g transform="translate(0.000000,192.000000) scale(0.100000,-0.100000)"
fill="#000000" stroke="none">
<path d="M804 1676 c-253 -58 -459 -245 -542 -493 -23 -70 -26 -93 -26 -223 0
-130 3 -153 26 -223 74 -222 253 -401 475 -475 70 -23 93 -26 223 -26 130 0
153 3 223 26 222 74 401 253 475 475 23 70 26 93 26 223 0 130 -3 153 -26 223
-74 222 -256 403 -475 474 -97 32 -283 41 -379 19z m356 -95 c194 -66 352
-224 421 -421 20 -55 23 -85 23 -200 0 -115 -3 -145 -23 -200 -68 -197 -224
-353 -421 -421 -55 -20 -85 -23 -200 -23 -115 0 -145 3 -200 23 -197 69 -356
227 -420 421 -30 89 -37 240 -16 339 50 237 252 443 488 496 91 21 264 14 348
-14z"/>
<path d="M855 1337 c-176 -59 -285 -203 -285 -377 0 -152 87 -286 228 -353 61
-29 76 -32 162 -32 86 0 101 3 162 32 304 144 304 564 0 706 -53 25 -82 31
-147 34 -48 2 -96 -2 -120 -10z"/>
</g>
</svg>
